# Blender v2.91.0 OBJ File: ''
# www.blender.org
mtllib ground.mtl
o Cube
v 10.000000 0.050000 -10.000000
v 10.000000 -0.050000 -10.000000
v 10.000000 0.050000 10.000000
v 10.000000 -0.050000 10.000000
v -10.000000 0.050000 -10.000000
v -10.000000 -0.050000 -10.000000
v -10.000000 0.050000 10.000000
v -10.000000 -0.050000 10.000000
vt 0.624980 0.000079
vt 0.000079 0.999921
vt 0.000079 0.000079
vt 0.000237 0.500237
vt 0.312441 0.999763
vt 0.000237 0.999763
vt 0.937796 0.499763
vt 0.625592 0.000237
vt 0.937796 0.000237
vt 0.625118 0.500237
vt 0.312915 0.999763
vt 0.312915 0.500237
vt 0.625592 0.500237
vt 0.937796 0.999763
vt 0.625592 0.999763
vt 0.625118 0.499763
vt 0.312915 0.000237
vt 0.625118 0.000237
vt 0.624980 0.999921
vt 0.312441 0.500237
vt 0.625592 0.499763
vt 0.625118 0.999763
vt 0.937796 0.500237
vt 0.312915 0.499763
vn 0.0000 1.0000 0.0000
vn 0.0000 0.0000 1.0000
vn -1.0000 0.0000 0.0000
vn 0.0000 -1.0000 0.0000
vn 1.0000 0.0000 0.0000
vn 0.0000 0.0000 -1.0000
usemtl Material
s off
f 5/1/1 3/2/1 1/3/1
f 3/4/2 8/5/2 4/6/2
f 7/7/3 6/8/3 8/9/3
f 2/10/4 8/11/4 6/12/4
f 1/13/5 4/14/5 2/15/5
f 5/16/6 2/17/6 6/18/6
f 5/1/1 7/19/1 3/2/1
f 3/4/2 7/20/2 8/5/2
f 7/7/3 5/21/3 6/8/3
f 2/10/4 4/22/4 8/11/4
f 1/13/5 3/23/5 4/14/5
f 5/16/6 1/24/6 2/17/6
